<svg id="Layer_1" data-name="Layer 1" xmlns="http://www.w3.org/2000/svg" viewBox="0 0 501.07 501.05"><defs><style>.cls-1{fill:#fff;}</style></defs><title>atq-white</title><g id="rRagGX"><path class="cls-1" d="M492.05,500.93c-15.9,0-31.45,0-47,.05-2,0-2.2-1.26-2.73-2.51l-24.55-58.39c-.25-.6-.53-1.18-.8-1.78-1.19,0-1.69,1-2.37,1.55C378,471.34,335.8,491,288.06,498.15,161.17,517.24,40.89,437.82,8.17,313.6c-34.88-132.42,45.2-270,177.6-305.08,129.74-34.76,263.8,39,303.92,167.16a250.69,250.69,0,0,1-37.83,223.83,5.25,5.25,0,0,0-.73,6.1q20,46.22,39.75,92.51C491.22,498.9,491.54,499.68,492.05,500.93ZM344.94,268.68c-31.81-76.7-63.48-153-95.38-229.9-31.92,77-63.61,153.33-95.38,229.9ZM294.7,41.91,431.59,360.68c32.91-49.85,42.59-127.12,15.52-190.25C417.9,102.29,366.2,61.12,294.7,41.91Zm-88.21.54C139.44,58.09,77.41,103.87,49.82,181.68,28.1,242.94,38.53,313.22,69.28,359.85Q137.88,201.2,206.49,42.45Zm64.44,343v73.7c0,1.15-.6,2.64,1.79,2.4,9.72-1,19.54-1.74,28.93-4.46,36.44-10.55,69.44-27.34,96.63-54.4,1.39-1.38,1.58-2.38.84-4.13q-18.35-43.43-36.51-86.88a3.45,3.45,0,0,0-3.8-2.51q-42.39.1-84.78,0c-2.64,0-3.17.75-3.16,3.24.09,24.27.06,48.65.06,73Zm-41.67,0v-73c0-2.42-.44-3.26-3.11-3.25q-42.89.17-85.77,0c-2.25,0-3.15.74-4,2.73q-17.52,42.51-35.26,84.92c-1,2.3-.63,3.54,1.08,5.24a208.58,208.58,0,0,0,62.35,42.3c19.7,8.85,40,15.48,61.7,17,2.63.18,3-.47,3-2.84q0-36.65,0-73.13Z" transform="translate(0 0.07)"/></g></svg>