<svg id="Layer_1" data-name="Layer 1" xmlns="http://www.w3.org/2000/svg" viewBox="0 0 602.46 577"><defs><style>.cls-1{fill:#fff;}</style></defs><title>atq-inverse</title><rect width="602.46" height="577" rx="80" ry="80"/><g id="rRagGX"><path class="cls-1" d="M552,548c-15.9,0-31.45,0-47,.06-2,0-2.2-1.27-2.73-2.52l-24.6-58.39c-.25-.59-.53-1.17-.8-1.78-1.19,0-1.69,1-2.37,1.55-36.63,31.49-78.8,51.12-126.54,58.3-126.85,19.1-247.13-60.33-279.85-184.55-34.88-132.42,45.2-270,177.55-305.08a250.54,250.54,0,0,1,304,167.16,250.7,250.7,0,0,1-37.83,223.83,5.27,5.27,0,0,0-.74,6.1q20,46.21,39.76,92.51C551.12,546,551.44,546.76,552,548ZM404.84,315.74,309.46,85.84c-31.92,77-63.61,153.33-95.38,229.9ZM354.6,89c45.85,106.75,91.32,212.65,136.89,318.75C524.4,357.87,534.08,280.6,507,217.47,477.8,149.35,426.1,108.19,354.6,89Zm-88.21.54c-67,15.64-129.08,61.42-156.67,139.23C88,290,98.43,360.28,129.18,406.92Zm64.44,343V469q0,18.58,0,37.17c0,1.15-.61,2.65,1.79,2.4,9.72-1,19.54-1.74,28.93-4.46,36.44-10.55,69.44-27.34,96.63-54.4a3.16,3.16,0,0,0,.84-4.13q-18.34-43.4-36.52-86.86a3.46,3.46,0,0,0-3.8-2.51q-42.39.12-84.78,0c-2.64,0-3.17.76-3.16,3.24C330.86,383.78,330.83,408.13,330.83,432.47Zm-41.67,0c0-24.35,0-48.7,0-73.05,0-2.42-.44-3.26-3.12-3.25q-42.87.17-85.76,0c-2.25,0-3.15.74-4,2.74q-17.52,42.49-35.26,84.92c-1,2.29-.64,3.53,1.08,5.24,18.12,18,39.08,31.85,62.35,42.3,19.7,8.84,40,15.47,61.7,17,2.63.18,3-.47,3-2.84C289.12,481.18,289.16,456.84,289.16,432.49Z" transform="translate(-9.23 -9.05)"/></g></svg>