<svg id="Layer_1" data-name="Layer 1" xmlns="http://www.w3.org/2000/svg" viewBox="0 0 501.13 500.98"><title>atq</title><g id="rRagGX"><path d="M500.28,511.25c-15.9,0-31.45,0-47,.05-2,0-2.2-1.26-2.73-2.51L426,450.4c-.25-.6-.53-1.18-.8-1.78-1.19,0-1.69,1-2.37,1.55-36.63,31.49-78.8,51.12-126.54,58.3C169.4,527.56,49.12,448.14,16.4,323.92-18.48,191.5,61.6,53.91,194,18.84A250.53,250.53,0,0,1,497.92,186a250.7,250.7,0,0,1-37.83,223.83,5.25,5.25,0,0,0-.73,6.1q20,46.21,39.75,92.51C499.45,509.22,499.77,510,500.28,511.25ZM353.17,279C321.36,202.3,289.69,126,257.79,49.1,225.87,126.05,194.18,202.43,162.41,279ZM302.93,52.23C348.78,159,394.25,264.88,439.82,371c32.91-49.85,42.59-127.12,15.52-190.25C426.13,112.61,374.43,71.44,302.93,52.23Zm-88.21.54C147.67,68.41,85.64,114.19,58.05,192,36.33,253.26,46.76,323.54,77.51,370.17Q146.1,211.51,214.72,52.77Zm64.44,343v36.52q0,18.58,0,37.18c0,1.15-.6,2.64,1.79,2.4,9.72-1,19.54-1.74,28.93-4.46,36.44-10.55,69.44-27.34,96.63-54.4,1.39-1.38,1.58-2.38.84-4.13Q389,365.45,370.84,322a3.45,3.45,0,0,0-3.8-2.51q-42.39.11-84.78,0c-2.64,0-3.17.75-3.16,3.24C279.19,347,279.16,371.38,279.16,395.73Zm-41.67,0c0-24.34,0-48.69,0-73,0-2.42-.44-3.26-3.11-3.25q-42.88.17-85.77,0c-2.25,0-3.15.74-4,2.73q-17.52,42.51-35.26,84.92c-1,2.3-.63,3.54,1.08,5.24,18.12,18,39.08,31.86,62.35,42.3,19.7,8.85,40,15.48,61.7,17,2.63.18,3-.47,3-2.84C237.45,444.44,237.49,420.09,237.49,395.74Z" transform="translate(-8.23 -10.32)"/></g></svg>